<?xml version="1.0" encoding="utf-8"?>
<!DOCTYPE svg PUBLIC "-//W3C//DTD SVG 20010904//EN" "http://www.w3.org/TR/2001/REC-SVG-20010904/DTD/svg10.dtd">
<svg version="1.0" xmlns="http://www.w3.org/2000/svg" width="1026pt" height="443pt" viewBox="0 0 1026 443" style="" preserveAspectRatio="xMidYMid meet">
<g fill="#DECDA7FF" stroke="#DECDA7FF">
<path d="M 361.445 102.068 C 359.765 102.557 357.290 104.127 355.945 105.558 L 353.500 108.161 353.236 210.615 C 353.006 299.827 353.171 313.924 354.507 319.688 C 358.590 337.293 371.610 349.095 393.704 355.219 C 400.483 357.098 404.044 357.377 421.000 357.358 C 442.418 357.334 449.733 356.070 461.707 350.324 C 470.137 346.278 481.012 335.191 484.095 327.500 L 486.500 321.500 486.768 216.001 C 486.967 137.765 486.737 109.778 485.877 107.703 C 483.968 103.095 479.752 101.535 469.500 101.644 C 452.115 101.828 436.897 110.480 429.927 124.142 C 425.295 133.222 425.072 137.969 425.035 228.271 L 425.000 313.043 422.541 314.163 C 420.572 315.061 419.576 314.952 417.541 313.619 L 415.000 311.954 414.983 227.227 C 414.964 135.356 414.930 134.715 409.479 123.958 C 401.375 107.966 377.924 97.279 361.445 102.068 "/></g>
<g fill="#DECDA7FF" stroke="#DECDA7FF">
<path d="M 264.347 102.095 C 246.145 105.136 230.664 117.010 221.938 134.625 C 214.927 148.777 214.870 149.622 215.240 233.687 C 215.601 315.837 215.282 311.824 222.657 326.926 C 229.830 341.614 244.759 352.935 261.685 356.521 C 270.434 358.375 285.591 358.370 294.371 356.510 C 311.187 352.947 327.135 340.780 334.361 326.000 C 341.145 312.124 341.106 312.719 340.761 227.145 C 340.481 157.793 340.285 149.929 338.708 144.500 C 332.298 122.441 315.305 106.592 293.662 102.487 C 285.206 100.883 272.610 100.714 264.347 102.095 M 280.927 131.635 C 282.991 134.259 283.000 134.672 283.000 229.563 C 283.000 333.570 283.312 328.000 277.485 328.000 C 271.772 328.000 272.000 332.157 272.000 227.849 C 272.000 142.177 272.165 131.978 273.571 130.571 C 275.882 128.261 278.580 128.651 280.927 131.635 "/></g>
<g fill="#DECDA7FF" stroke="#DECDA7FF">
<path d="M 765.500 102.395 C 752.661 104.961 741.939 112.183 736.713 121.786 C 730.894 132.478 730.999 130.552 731.008 225.960 C 731.012 281.493 731.394 315.877 732.052 320.000 C 733.409 328.514 737.804 337.804 742.872 342.872 C 747.932 347.932 756.870 352.514 766.856 355.167 C 776.195 357.648 795.635 358.122 804.000 356.073 C 815.255 353.317 824.846 347.063 829.809 339.247 C 835.685 329.993 836.000 327.334 836.000 286.993 L 836.000 250.349 833.486 247.987 C 831.582 246.199 829.514 245.520 824.959 245.191 C 816.954 244.612 810.996 246.429 803.993 251.584 C 799.472 254.912 797.508 257.255 795.049 262.250 C 790.942 270.592 790.044 277.448 790.020 300.679 C 790.003 316.762 789.746 320.111 788.429 321.429 C 785.356 324.501 780.653 322.532 779.473 317.680 C 779.181 316.481 779.068 298.625 779.221 278.000 L 779.500 240.500 786.727 239.854 C 811.988 237.598 831.441 222.302 835.884 201.201 C 837.659 192.772 837.336 140.050 835.460 132.093 C 830.123 109.450 815.815 100.846 783.918 101.098 C 777.088 101.152 768.800 101.736 765.500 102.395 M 788.369 138.519 C 788.690 139.355 788.988 155.667 789.032 174.769 L 789.111 209.500 785.219 209.800 C 782.731 209.991 780.894 209.577 780.125 208.650 C 778.282 206.429 778.981 140.929 780.872 138.652 C 782.599 136.574 787.589 136.486 788.369 138.519 "/></g>
<g fill="#DECDA7FF" stroke="#DECDA7FF">
<path d="M 643.226 102.076 C 635.087 103.334 626.772 106.479 622.842 109.787 C 621.121 111.234 618.658 114.687 617.367 117.459 C 615.036 122.466 615.019 122.757 615.010 160.040 C 614.999 201.309 615.318 204.188 621.106 215.048 C 624.964 222.285 633.106 230.452 642.094 236.099 C 665.627 250.883 670.677 257.729 673.008 278.004 C 674.146 287.905 674.310 317.983 673.235 319.615 C 672.048 321.416 668.459 322.125 665.748 321.094 L 663.232 320.138 662.760 296.319 C 662.229 269.541 661.503 265.846 655.105 257.380 C 652.567 254.023 649.447 251.496 644.969 249.172 C 639.165 246.160 637.821 245.853 631.890 246.182 C 626.535 246.480 624.584 247.080 621.619 249.341 C 614.522 254.755 614.537 254.686 614.162 282.053 C 613.749 312.213 614.857 325.143 618.492 332.572 C 623.456 342.719 635.333 350.785 651.704 355.126 C 661.068 357.609 679.560 358.075 688.000 356.040 C 701.429 352.804 710.923 346.047 715.137 336.727 L 717.500 331.500 717.500 289.000 C 717.500 247.352 717.455 246.390 715.270 241.000 C 711.962 232.840 708.111 228.845 694.958 219.931 C 680.799 210.334 675.013 204.240 669.863 193.500 C 664.436 182.180 662.801 172.942 662.637 152.679 C 662.520 138.171 662.729 135.599 664.095 134.725 C 666.219 133.367 670.584 134.545 671.565 136.741 C 671.997 137.709 672.674 146.600 673.070 156.500 C 674.123 182.861 677.231 192.187 688.903 204.003 C 693.723 208.883 696.828 211.129 700.428 212.341 C 705.658 214.102 713.635 214.518 715.801 213.144 C 716.844 212.482 717.038 204.004 716.779 170.409 C 716.487 132.616 716.272 127.991 714.599 123.322 C 710.955 113.156 703.869 107.714 689.325 103.910 C 680.212 101.526 653.626 100.469 643.226 102.076 "/></g>
<g fill="#DECDA7FF" stroke="#DECDA7FF">
<path d="M 522.500 102.073 C 510.182 103.772 503.588 108.625 501.016 117.882 C 500.423 120.016 500.009 137.307 500.006 160.040 C 500.001 191.434 500.284 199.670 501.531 204.458 C 505.225 218.641 513.788 228.690 531.391 239.500 C 549.132 250.395 555.547 259.318 557.924 276.406 C 559.437 287.290 559.349 318.251 557.800 319.800 C 555.963 321.637 550.532 321.246 548.626 319.139 C 547.143 317.500 546.965 314.717 547.141 295.889 C 547.363 272.043 546.567 267.219 541.031 258.861 C 531.916 245.099 512.751 241.868 503.000 252.449 L 500.500 255.162 500.500 290.831 L 500.500 326.500 503.262 332.125 C 510.937 347.752 530.710 357.000 556.450 357.000 C 579.968 357.000 594.637 349.787 600.461 335.358 C 602.257 330.908 602.452 327.450 602.778 294.188 C 603.161 255.239 602.550 247.072 598.615 238.500 C 595.178 231.013 592.194 228.046 578.991 218.994 C 554.214 202.005 548.214 189.988 547.262 155.439 C 546.820 139.401 546.953 137.190 548.454 135.689 C 550.676 133.467 552.556 133.556 555.000 136.000 C 556.811 137.811 557.001 139.343 557.013 152.250 C 557.035 176.435 561.494 191.298 572.085 202.496 C 578.673 209.462 585.598 213.118 593.392 213.743 C 598.178 214.128 599.845 213.892 600.841 212.691 C 601.852 211.474 602.054 202.665 601.791 171.322 C 601.428 128.021 601.183 125.999 595.367 118.277 C 590.513 111.833 579.802 106.342 566.500 103.480 C 557.802 101.609 531.876 100.779 522.500 102.073 "/></g>
<g fill="#DECDA7FF" stroke="#DECDA7FF">
<path d="M 923.500 98.064 C 896.456 99.986 883.190 101.320 878.197 102.621 C 864.600 106.163 855.872 115.269 851.268 130.720 C 849.692 136.006 849.519 145.788 849.239 245.216 C 848.934 353.404 848.942 353.942 850.966 355.966 C 853.687 358.687 862.943 358.700 873.504 355.999 C 890.181 351.734 900.001 342.686 905.289 326.714 C 907.214 320.901 907.371 317.659 907.721 276.500 C 907.926 252.300 908.262 231.994 908.468 231.376 C 908.732 230.579 911.414 230.801 917.670 232.137 C 922.527 233.175 930.865 234.310 936.200 234.660 C 944.419 235.199 946.301 235.033 948.533 233.570 C 952.130 231.213 954.000 226.230 954.000 219.000 C 954.000 207.915 949.898 202.956 940.800 203.040 C 938.435 203.061 930.269 203.885 922.654 204.870 C 913.024 206.116 908.704 206.332 908.467 205.580 C 908.280 204.986 907.929 193.700 907.687 180.500 C 907.260 157.174 907.160 156.205 904.130 146.000 C 899.346 129.886 900.104 123.801 907.861 116.044 C 914.664 109.241 919.679 108.413 915.118 114.846 C 912.503 118.534 909.998 126.351 910.010 130.785 C 910.023 135.815 913.928 143.703 918.630 148.201 C 934.033 162.931 957.284 156.970 967.575 135.653 C 974.955 120.365 972.419 107.286 960.947 101.473 C 952.798 97.344 944.395 96.579 923.500 98.064 "/></g>
<g fill="#DECDA7FF" stroke="#DECDA7FF">
<path d="M 63.162 102.272 C 57.251 104.163 56.614 106.299 57.331 121.805 C 57.679 129.337 58.630 145.400 59.445 157.500 C 60.259 169.600 61.423 187.825 62.031 198.000 C 64.231 234.834 65.718 242.695 73.291 257.500 C 78.662 268.001 88.699 278.132 98.486 282.932 C 104.091 285.680 106.999 286.446 113.188 286.805 C 120.711 287.240 120.978 287.176 123.951 284.203 L 127.000 281.154 126.992 217.827 C 126.988 182.997 126.554 150.756 126.028 146.179 C 123.761 126.462 109.144 108.831 90.217 102.985 C 83.084 100.782 68.982 100.410 63.162 102.272 "/></g>
<g fill="#DECDA7FF" stroke="#DECDA7FF">
<path d="M 173.000 102.433 C 161.982 105.504 150.548 113.978 144.350 123.667 C 142.529 126.514 139.905 132.221 138.519 136.348 L 136.000 143.853 136.000 212.972 L 136.000 282.091 138.561 284.652 C 140.925 287.016 141.679 287.184 148.384 286.846 C 154.320 286.546 157.040 285.790 163.278 282.707 C 183.457 272.734 195.801 252.137 198.462 224.000 C 199.686 211.060 204.991 123.312 204.996 115.937 C 205.000 108.969 204.784 108.174 202.250 105.823 C 200.738 104.420 197.970 102.761 196.101 102.136 C 191.695 100.664 178.752 100.830 173.000 102.433 "/></g>
<g fill="#DECDA7FF" stroke="#DECDA7FF">
<path d="M 119.500 297.343 C 96.751 304.857 85.725 329.856 95.729 351.235 C 99.923 360.196 104.884 365.339 113.392 369.544 C 126.352 375.949 140.897 375.158 152.566 367.413 C 158.992 363.147 163.051 358.265 166.766 350.336 C 169.157 345.232 169.495 343.308 169.461 335.000 C 169.430 327.613 168.931 324.267 167.216 319.955 C 164.037 311.966 156.361 303.795 148.309 299.831 C 142.554 296.998 140.531 296.544 132.602 296.300 C 126.996 296.128 121.964 296.529 119.500 297.343 "/></g>
</svg>
